REM DIRINDEX 1\2,1\3,1\4,1\5
REM DIRNAME folder01,folder02,folder03,folder04,folder05
TITLE ""
FILE "158.mp3" MP3
  TRACK 01 AUDIO
    TITLE "0:"
    INDEX 01 00:00:00
  TRACK 02 AUDIO
    TITLE "2:cjc046_4534"
    INDEX 01 00:00:13
  TRACK 03 AUDIO
    TITLE "0:"
    INDEX 01 00:01:32
  TRACK 04 AUDIO
    TITLE "3:cjc046_4535"
    INDEX 01 00:01:52
  TRACK 05 AUDIO
    TITLE "0:"
    INDEX 01 00:03:14
  TRACK 06 AUDIO
    TITLE "4:cjc046_4536"
    INDEX 01 00:03:31
  TRACK 07 AUDIO
    TITLE "0:"
    INDEX 01 00:04:50
  TRACK 08 AUDIO
    TITLE "2:cjc046_4537"
    INDEX 01 00:05:57
  TRACK 09 AUDIO
    TITLE "0:"
    INDEX 01 00:06:63
  TRACK 10 AUDIO
    TITLE "3:cjc046_4538"
    INDEX 01 00:07:09
  TRACK 11 AUDIO
    TITLE "0:"
    INDEX 01 00:08:23
  TRACK 12 AUDIO
    TITLE "4:cjc046_4539"
    INDEX 01 00:08:38
  TRACK 13 AUDIO
    TITLE "0:"
    INDEX 01 00:09:42
  TRACK 14 AUDIO
    TITLE "2:cjc046_4540"
    INDEX 01 00:10:51
  TRACK 15 AUDIO
    TITLE "0:"
    INDEX 01 00:11:62
  TRACK 16 AUDIO
    TITLE "3:cjc046_4541"
    INDEX 01 00:12:03
  TRACK 17 AUDIO
    TITLE "0:"
    INDEX 01 00:13:00
  TRACK 18 AUDIO
    TITLE "4:cjc046_4542"
    INDEX 01 00:13:20
  TRACK 19 AUDIO
    TITLE "0:"
    INDEX 01 00:14:29
  TRACK 20 AUDIO
    TITLE "2:cjc046_4543"
    INDEX 01 00:15:36
  TRACK 21 AUDIO
    TITLE "0:"
    INDEX 01 00:16:57
  TRACK 22 AUDIO
    TITLE "3:cjc046_4544"
    INDEX 01 00:16:73
  TRACK 23 AUDIO
    TITLE "0:"
    INDEX 01 00:17:63
  TRACK 24 AUDIO
    TITLE "4:cjc046_4545"
    INDEX 01 00:18:07
  TRACK 25 AUDIO
    TITLE "0:"
    INDEX 01 00:19:26
  TRACK 26 AUDIO
    TITLE "2:cjc046_4546"
    INDEX 01 00:20:34
  TRACK 27 AUDIO
    TITLE "0:"
    INDEX 01 00:21:53
  TRACK 28 AUDIO
    TITLE "3:cjc046_4547"
    INDEX 01 00:21:74
  TRACK 29 AUDIO
    TITLE "0:"
    INDEX 01 00:23:18
  TRACK 30 AUDIO
    TITLE "4:cjc046_4548"
    INDEX 01 00:23:28
  TRACK 31 AUDIO
    TITLE "0:"
    INDEX 01 00:24:47
  TRACK 32 AUDIO
    TITLE "2:cjc046_4549"
    INDEX 01 00:25:56
  TRACK 33 AUDIO
    TITLE "0:"
    INDEX 01 00:27:06
  TRACK 34 AUDIO
    TITLE "3:cjc046_4550"
    INDEX 01 00:27:26
  TRACK 35 AUDIO
    TITLE "0:"
    INDEX 01 00:28:51
  TRACK 36 AUDIO
    TITLE "4:cjc046_4551"
    INDEX 01 00:28:68
  TRACK 37 AUDIO
    TITLE "0:"
    INDEX 01 00:30:18
  TRACK 38 AUDIO
    TITLE "2:cjc046_4552"
    INDEX 01 00:31:24
  TRACK 39 AUDIO
    TITLE "0:"
    INDEX 01 00:32:47
  TRACK 40 AUDIO
    TITLE "3:cjc046_4553"
    INDEX 01 00:32:68
  TRACK 41 AUDIO
    TITLE "0:"
    INDEX 01 00:34:30
  TRACK 42 AUDIO
    TITLE "4:cjc046_4554"
    INDEX 01 00:34:49
  TRACK 43 AUDIO
    TITLE "0:"
    INDEX 01 00:35:72
  TRACK 44 AUDIO
    TITLE "2:cjc046_4555"
    INDEX 01 00:37:07
  TRACK 45 AUDIO
    TITLE "0:"
    INDEX 01 00:38:14
  TRACK 46 AUDIO
    TITLE "3:cjc046_4556"
    INDEX 01 00:38:35
  TRACK 47 AUDIO
    TITLE "0:"
    INDEX 01 00:40:03
  TRACK 48 AUDIO
    TITLE "4:cjc046_4557"
    INDEX 01 00:40:23
  TRACK 49 AUDIO
    TITLE "0:"
    INDEX 01 00:41:30
  TRACK 50 AUDIO
    TITLE "2:cjc046_4558"
    INDEX 01 00:42:39
  TRACK 51 AUDIO
    TITLE "0:"
    INDEX 01 00:43:48
  TRACK 52 AUDIO
    TITLE "3:cjc046_4559"
    INDEX 01 00:43:62
  TRACK 53 AUDIO
    TITLE "0:"
    INDEX 01 00:45:20
  TRACK 54 AUDIO
    TITLE "4:cjc046_4560"
    INDEX 01 00:45:41
  TRACK 55 AUDIO
    TITLE "0:"
    INDEX 01 00:46:51
  TRACK 56 AUDIO
    TITLE "2:cjc046_4561"
    INDEX 01 00:47:58
  TRACK 57 AUDIO
    TITLE "0:"
    INDEX 01 00:48:63
  TRACK 58 AUDIO
    TITLE "3:cjc046_4562"
    INDEX 01 00:49:10
  TRACK 59 AUDIO
    TITLE "0:"
    INDEX 01 00:50:62
  TRACK 60 AUDIO
    TITLE "4:cjc046_4563"
    INDEX 01 00:51:07
  TRACK 61 AUDIO
    TITLE "0:"
    INDEX 01 00:52:08
  TRACK 62 AUDIO
    TITLE "2:cjc046_4564"
    INDEX 01 00:53:21
  TRACK 63 AUDIO
    TITLE "0:"
    INDEX 01 00:54:17
  TRACK 64 AUDIO
    TITLE "3:cjc046_4565"
    INDEX 01 00:54:34
  TRACK 65 AUDIO
    TITLE "0:"
    INDEX 01 00:55:53
  TRACK 66 AUDIO
    TITLE "4:cjc046_4566"
    INDEX 01 00:55:71
  TRACK 67 AUDIO
    TITLE "0:"
    INDEX 01 00:56:69
  TRACK 68 AUDIO
    TITLE "2:cjc046_4567"
    INDEX 01 00:57:74
  TRACK 69 AUDIO
    TITLE "0:"
    INDEX 01 00:59:14
  TRACK 70 AUDIO
    TITLE "3:cjc046_4568"
    INDEX 01 00:59:30
  TRACK 71 AUDIO
    TITLE "0:"
    INDEX 01 01:00:45
  TRACK 72 AUDIO
    TITLE "4:cjc046_4569"
    INDEX 01 01:00:55
  TRACK 73 AUDIO
    TITLE "0:"
    INDEX 01 01:01:68
  TRACK 74 AUDIO
    TITLE "2:cjc046_4570"
    INDEX 01 01:03:02
  TRACK 75 AUDIO
    TITLE "0:"
    INDEX 01 01:04:15
  TRACK 76 AUDIO
    TITLE "3:cjc046_4571"
    INDEX 01 01:04:35
  TRACK 77 AUDIO
    TITLE "0:"
    INDEX 01 01:05:26
  TRACK 78 AUDIO
    TITLE "4:cjc046_4572"
    INDEX 01 01:05:48
  TRACK 79 AUDIO
    TITLE "0:"
    INDEX 01 01:06:63
  TRACK 80 AUDIO
    TITLE "2:cjc046_4573"
    INDEX 01 01:07:72
  TRACK 81 AUDIO
    TITLE "0:"
    INDEX 01 01:09:05
  TRACK 82 AUDIO
    TITLE "3:cjc046_4574"
    INDEX 01 01:09:22
  TRACK 83 AUDIO
    TITLE "0:"
    INDEX 01 01:10:47
  TRACK 84 AUDIO
    TITLE "4:cjc046_4575"
    INDEX 01 01:10:65
  TRACK 85 AUDIO
    TITLE "0:"
    INDEX 01 01:11:74
  TRACK 86 AUDIO
    TITLE "2:cjc046_4576"
    INDEX 01 01:13:06
  TRACK 87 AUDIO
    TITLE "0:"
    INDEX 01 01:14:17
  TRACK 88 AUDIO
    TITLE "3:cjc046_4577"
    INDEX 01 01:14:39
  TRACK 89 AUDIO
    TITLE "0:"
    INDEX 01 01:15:56
  TRACK 90 AUDIO
    TITLE "4:cjc046_4578"
    INDEX 01 01:15:74
  TRACK 91 AUDIO
    TITLE "0:"
    INDEX 01 01:17:12
  TRACK 92 AUDIO
    TITLE "2:cjc046_4579"
    INDEX 01 01:18:21
  TRACK 93 AUDIO
    TITLE "0:"
    INDEX 01 01:19:60
  TRACK 94 AUDIO
    TITLE "3:cjc046_4580"
    INDEX 01 01:20:04
  TRACK 95 AUDIO
    TITLE "0:"
    INDEX 01 01:21:33
  TRACK 96 AUDIO
    TITLE "4:cjc046_4581"
    INDEX 01 01:21:47
  TRACK 97 AUDIO
    TITLE "0:"
    INDEX 01 01:23:11
